{"title":"Red Riding Hood 2011 XViD R5 LiNE DTRG - SAFCuk009","uid":6422310,"size":945949268,"categoryP":"video","categoryS":"movies","magnet":"?xt=urn:btih:8e3bdddc8a71676bbd2ad524a26412983f3deb7a&amp;dn=Red+Riding+Hood+2011+XViD+R5+LiNE+DTRG+-+SAFCuk009&amp;tr=udp%3A%2F%2Ftracker.openbittorrent.com%3A80&amp;tr=udp%3A%2F%2Fopen.demonii.com%3A1337&amp;tr=udp%3A%2F%2Ftracker.coppersurfer.tk%3A6969&amp;tr=udp%3A%2F%2Fexodus.desync.com%3A6969","seeders":1,"leechers":0,"uploader":"SAFCukO09","files":3,"time":1306341649,"description":"Format : AVI\nFormat/Info : Audio Video Interleave\nFile size : 902 MiB\nDuration : 1h 39mn\nOverall bit rate : 1 263 Kbps\nWriting library : VirtualDub build 32839/release\n\nVideo\nID : 0\nFormat : MPEG-4 Visual\nFormat profile : Advanced Simple@L5\nFormat settings, BVOP : 2\nFormat settings, QPel : No\nFormat settings, GMC : No warppoints\nFormat settings, Matrix : Default (H.263)\nMuxing mode : Packed bitstream\nCodec ID : XVID\nCodec ID/Hint : XviD\nDuration : 1h 39mn\nBit rate : 1 124 Kbps\nWidth : 720 pixels\nHeight : 304 pixels\nDisplay aspect ratio : 2.35:1\nFrame rate : 29.970 fps\nColor space : YUV\nChroma subsampling : 4:2:0\nBit depth : 8 bits\nScan type : Progressive\nCompression mode : Lossy\nBits/(Pixel*Frame) : 0.171\nStream size : 802 MiB (89%)\nWriting library : XviD 63\n\nAudio\nID : 1\nFormat : MPEG Audio\nFormat version : Version 1\nFormat profile : Layer 3\nMode : Joint stereo\nMode extension : MS Stereo\nCodec ID : 55\nCodec ID/Hint : MP3\nDuration : 1h 39mn\nBit rate mode : Constant\nBit rate : 128 Kbps\nChannel(s) : 2 channels\nSampling rate : 44.1 KHz\nCompression mode : Lossy\nStream size : 91.4 MiB (10%)\nAlignment : Split accross interleaves\nInterleave, duration : 33 ms (1.00 video frame)\nInterleave, preload duration : 500 ms\nWriting library : LAME3.98r\nEncoding settings : -m j -V 4 -q 2 -lowpass 17 -b 128\n\n\n\n &lt;a href=&quot;\nhttp://www.imdb.com/title/tt1486185/&quot; rel=&quot;nofollow&quot; target=&quot;_NEW&quot;&gt;\nhttp://www.imdb.com/title/tt1486185/&lt;/a&gt;\n\n\n\n\n\n\n\nUsers: 4.9/10 (7,189 votes) 130 reviews | Critics: 215 reviews Metascore: 29/100 (based on 36 reviews from Metacritic.com)\n\nSet in a medieval village that is haunted by a werewolf, a young girl falls for an orphaned woodcutter, much to her family's displeasure.\nDirector:\nCatherine Hardwicke\nWriter:\nDavid Johnson\nStars:\nAmanda Seyfried, Lukas Haas and Gary Oldma\n\n\n\n\n\n\n\n\n\n\n\n\n\n\n\n\nSource Used\n\nVideo KINOPARK (IMAGiNE) .........Thanks\nAudio IMAGiNE .......................Thanks\n\nBasically just brightened it up a touch and sharpened it a touch\n\nEnjoy !\n\nGreetz to IMAGiNE,Flawl3ss,DiLLoN,BDK,NOiR,TOXiCiNK,THC,Ez,Rx,Boobyblue,TaRiQ786,LKRG,CrEwSaDe","torrent":{"xt":"urn:btih:8e3bdddc8a71676bbd2ad524a26412983f3deb7a","amp;dn":"Red+Riding+Hood+2011+XViD+R5+LiNE+DTRG+-+SAFCuk009","amp;tr":["udp%3A%2F%2Ftracker.openbittorrent.com%3A80","udp%3A%2F%2Fopen.demonii.com%3A1337","udp%3A%2F%2Ftracker.coppersurfer.tk%3A6969","udp%3A%2F%2Fexodus.desync.com%3A6969"],"infoHash":"8e3bdddc8a71676bbd2ad524a26412983f3deb7a","infoHashBuffer":{"type":"Buffer","data":[142,59,221,220,138,113,103,107,189,42,213,36,162,100,18,152,63,61,235,122]},"announce":[],"urlList":[]}}